<?xml version="1.0" standalone="no"?>
<!DOCTYPE svg PUBLIC "-//W3C//DTD SVG 20010904//EN"
 "http://www.w3.org/TR/2001/REC-SVG-20010904/DTD/svg10.dtd">
<svg version="1.0" xmlns="http://www.w3.org/2000/svg"
 width="350.000000pt" height="350.000000pt" viewBox="0 0 350.000000 350.000000"
 preserveAspectRatio="xMidYMid meet">
<metadata>
Created by potrace 1.11, written by Peter Selinger 2001-2013
</metadata>
<g transform="translate(0.000000,350.000000) scale(0.100000,-0.100000)"
fill="#000000" stroke="none">
<path d="M0 3461 c0 -61 7 -71 51 -71 96 0 314 63 314 90 0 13 -29 15 -182 18
l-183 2 0 -39z"/>
<path d="M2333 3485 c-123 -16 -149 -23 -135 -37 6 -6 17 -6 30 1 31 17 109
14 116 -4 4 -10 -1 -15 -14 -15 -32 0 -71 -22 -68 -39 2 -9 12 -16 23 -16 11
-1 26 -5 34 -9 10 -6 12 -5 7 2 -5 8 3 12 23 13 36 2 37 2 71 16 38 16 226 27
234 14 4 -6 0 -11 -8 -11 -9 0 -16 -6 -16 -13 0 -10 -68 -37 -169 -65 -14 -4
-24 -11 -22 -17 3 -14 148 -7 180 9 14 7 44 11 68 8 23 -2 66 3 96 12 58 17
224 21 307 7 l45 -7 -37 -17 c-27 -11 -36 -20 -32 -31 3 -9 1 -16 -5 -16 -6 0
-20 -9 -30 -19 -11 -11 -48 -29 -83 -40 l-63 -21 66 6 c43 3 69 1 74 -5 3 -6
-1 -11 -10 -11 -9 0 -14 -4 -11 -9 3 -5 -28 -12 -69 -16 -41 -4 -75 -11 -75
-16 0 -5 10 -9 23 -10 20 -1 19 -2 -8 -15 -28 -14 -27 -14 30 -7 79 11 229 6
233 -7 5 -14 29 -13 35 3 3 7 6 5 6 -6 1 -14 7 -16 29 -12 23 5 24 4 7 -5 -17
-9 -15 -10 13 -7 18 2 35 0 38 -5 3 -4 -29 -8 -71 -8 -48 0 -74 4 -70 10 3 6
2 10 -4 10 -5 0 -13 -4 -16 -10 -4 -6 -13 -5 -25 2 -15 10 -29 10 -65 0 -25
-7 -83 -12 -129 -12 -46 0 -108 -5 -137 -11 -30 -6 -88 -17 -129 -24 -69 -12
-71 -13 -28 -14 26 0 50 -5 53 -11 3 -5 24 -10 45 -10 64 0 54 -16 -33 -51
-52 -21 -75 -35 -63 -37 11 -2 35 1 55 6 20 6 50 14 66 17 l30 5 -25 -16 c-24
-15 -24 -15 23 -10 36 4 53 2 64 -9 8 -8 11 -15 6 -15 -5 0 -14 5 -20 11 -8 8
-27 5 -70 -10 -32 -11 -82 -23 -111 -27 -37 -5 -56 -12 -63 -26 -12 -23 6 -52
28 -44 7 3 13 1 13 -4 0 -6 -6 -10 -12 -10 -10 0 -10 -2 0 -9 8 -4 13 -12 12
-17 0 -5 7 -11 17 -12 18 -4 43 -29 43 -45 0 -4 -4 -6 -9 -2 -5 3 -13 0 -17
-6 -4 -8 -9 -7 -16 2 -8 11 -9 11 -5 -1 2 -8 10 -15 19 -15 27 0 86 -55 81
-75 -3 -11 -11 -16 -19 -13 -8 3 -14 0 -14 -6 0 -6 6 -11 13 -11 8 -1 7 -5 -4
-13 -9 -7 -14 -19 -12 -27 3 -9 1 -11 -4 -4 -4 6 -16 13 -26 17 -20 7 -16 -4
11 -36 14 -16 13 -20 -6 -47 -12 -16 -22 -34 -22 -40 0 -6 -5 -8 -11 -4 -9 5
-10 -1 -5 -21 6 -22 4 -26 -9 -21 -12 4 -13 2 -6 -12 5 -9 18 -26 29 -37 14
-16 17 -27 10 -44 -11 -32 -5 -36 25 -17 l24 16 -2 -47 c-1 -45 -3 -48 -36
-57 -19 -5 -37 -14 -41 -20 -13 -20 -21 26 -8 48 55 87 6 177 -98 181 -23 1
-40 0 -37 -3 3 -3 -7 -18 -22 -34 -25 -26 -26 -29 -13 -67 7 -22 10 -51 8 -65
-3 -15 0 -27 8 -30 8 -3 14 -11 14 -18 0 -8 -3 -9 -8 -3 -4 6 -41 27 -82 47
-88 44 -173 123 -149 139 11 8 10 9 -6 5 -15 -4 -35 10 -80 57 -96 100 -96 99
-86 135 8 27 7 34 -10 43 -11 5 -30 9 -42 7 -17 -2 -22 -10 -22 -33 0 -16 3
-38 8 -49 6 -13 5 -22 -4 -28 -11 -8 -10 -8 4 -4 11 4 20 0 24 -12 4 -9 14
-27 24 -40 10 -13 15 -30 12 -38 -3 -9 3 -21 16 -30 22 -16 91 -117 91 -134 0
-6 6 -10 13 -10 21 0 116 -89 142 -134 28 -49 45 -136 26 -136 -7 0 -9 5 -5
12 5 7 3 8 -7 2 -25 -15 -39 -13 -50 8 -7 13 -7 18 -1 14 16 -9 44 5 38 20 -3
7 0 15 7 18 8 3 6 10 -7 20 -23 18 -36 20 -36 6 0 -5 7 -10 16 -10 11 0 14 -5
10 -16 -3 -9 -6 -20 -6 -25 0 -5 -5 -9 -11 -9 -5 0 -8 4 -5 9 4 5 -3 7 -14 4
-11 -3 -20 -11 -20 -18 0 -14 36 -40 65 -48 17 -4 17 -5 3 -6 -10 0 -18 -6
-18 -12 0 -5 4 -8 9 -4 5 3 12 1 16 -5 4 -6 -22 -10 -72 -11 -43 -1 -132 -4
-198 -6 -66 -3 -144 -5 -172 -5 -30 -1 -53 -5 -53 -11 0 -8 -3 -8 -10 -1 -7 7
-49 9 -110 6 -70 -3 -100 -1 -100 7 0 6 -5 11 -11 11 -5 0 -7 -5 -4 -10 4 -7
-18 -10 -62 -10 -37 0 -81 -2 -97 -4 -16 -3 -34 0 -40 5 -6 5 -21 18 -34 28
-22 19 -15 40 9 26 6 -4 5 2 -2 13 -7 12 -17 18 -21 16 -4 -3 -8 -2 -8 3 0 15
-50 8 -51 -7 0 -10 -2 -11 -6 -2 -7 18 -20 15 -26 -8 -3 -11 -1 -20 4 -20 15
0 -2 -29 -22 -35 -10 -4 -19 -14 -19 -24 0 -17 13 -20 108 -23 22 -1 31 -6 28
-14 -3 -8 0 -11 9 -7 8 3 17 -2 21 -10 3 -10 12 -13 22 -10 11 5 14 2 9 -10
-6 -16 19 -45 30 -33 3 3 1 6 -5 6 -7 0 -12 7 -12 15 0 8 4 15 9 15 11 0 44
-50 44 -67 0 -7 6 -13 14 -13 7 0 13 7 13 15 0 8 -4 15 -10 15 -5 0 -10 5 -10
11 0 8 4 8 14 0 17 -14 31 2 20 22 -5 8 -2 8 9 -2 18 -14 24 -37 8 -26 -5 3
-12 1 -16 -4 -3 -6 4 -15 16 -21 17 -10 23 -8 34 7 7 10 17 15 21 10 4 -4 2
-7 -6 -7 -10 0 -10 -3 0 -15 9 -11 16 -12 30 -3 10 7 16 16 14 20 -3 4 2 8 11
8 11 0 14 -7 11 -25 -3 -17 0 -25 10 -25 8 0 17 -7 20 -15 4 -8 10 -12 16 -9
5 3 16 -3 24 -15 9 -12 19 -19 24 -16 5 3 19 1 31 -6 19 -10 21 -9 16 6 -4 9
-7 18 -7 21 0 2 -6 1 -14 -2 -7 -3 -16 2 -19 10 -5 12 -1 13 23 5 16 -6 31
-17 34 -25 3 -8 11 -14 18 -14 11 0 11 2 0 8 -9 7 -7 13 9 28 22 19 22 19 10
-3 -9 -17 -8 -25 5 -38 20 -20 12 -30 -13 -17 -12 7 -25 7 -34 1 -13 -8 -12
-10 12 -13 6 0 17 -10 25 -20 13 -18 19 -15 15 7 -1 5 8 11 19 14 11 3 20 9
20 14 0 4 9 7 20 6 11 -1 20 -7 20 -15 0 -7 5 -10 12 -6 7 5 9 0 6 -14 -5 -19
-3 -20 12 -12 24 13 30 13 30 -1 0 -5 -5 -7 -12 -3 -8 5 -9 2 -5 -9 3 -10 2
-17 -3 -17 -6 0 -10 4 -10 10 0 5 -8 6 -17 3 -12 -5 -15 -2 -11 8 4 9 -3 21
-15 29 -20 12 -21 12 -8 -4 12 -14 11 -19 -5 -38 -19 -20 -19 -21 4 -13 18 5
30 0 53 -24 27 -29 28 -36 5 -32 -5 1 -3 -5 4 -14 11 -13 10 -15 -3 -9 -14 5
-13 -1 3 -47 11 -28 17 -55 15 -60 -3 -4 0 -11 6 -15 8 -4 9 -3 5 4 -4 7 -2
12 4 12 7 0 9 -8 4 -22 -10 -33 -11 -98 -1 -98 17 0 -6 -21 -46 -41 -22 -12
-49 -32 -59 -44 -30 -39 -103 -68 -166 -67 -31 0 -60 -5 -64 -11 -4 -8 -11 -7
-22 2 -12 10 -16 10 -16 2 0 -7 -5 -9 -10 -6 -6 4 -8 10 -5 15 3 5 -16 7 -45
3 -32 -4 -50 -2 -50 5 0 5 -8 8 -18 6 -9 -3 -27 4 -39 15 -12 12 -27 21 -33
21 -5 0 -10 5 -10 10 0 6 5 10 12 10 6 0 8 3 5 6 -4 4 -13 1 -22 -6 -12 -10
-15 -10 -15 4 0 12 -6 16 -18 12 -32 -10 -126 -9 -169 3 -33 9 -40 15 -36 30
4 15 -1 20 -19 23 -15 2 -23 9 -22 20 1 10 -2 16 -6 13 -5 -3 -20 14 -34 37
-45 75 -39 72 -87 48 -24 -12 -56 -23 -72 -25 -15 -2 -34 -8 -43 -13 -9 -5
-32 -6 -52 -1 -37 8 -56 4 -47 -11 3 -4 -4 -6 -15 -3 -19 5 -19 6 -4 18 15 11
14 13 -14 23 -18 6 -32 16 -32 21 0 6 -7 7 -17 4 -10 -4 -14 -2 -9 5 3 6 -2
16 -13 21 -11 6 -21 21 -23 33 -2 17 -9 22 -25 21 -16 -2 -21 2 -17 12 4 8 10
15 16 15 5 0 7 4 3 10 -3 5 -12 7 -20 3 -8 -3 -15 0 -15 6 0 6 4 11 9 11 5 0
9 11 9 25 0 14 -5 25 -10 25 -6 0 -7 11 -4 26 5 17 3 23 -4 19 -5 -3 -10 -1
-10 4 0 6 7 11 15 11 8 0 15 7 15 16 0 8 4 13 8 10 9 -5 9 30 1 38 -3 3 -29
-1 -59 -9 -58 -16 -119 -13 -167 7 -15 6 -30 12 -33 12 -3 1 -11 5 -19 10 -11
7 -11 10 0 18 11 7 10 8 -4 4 -12 -4 -27 3 -43 21 -16 18 -21 29 -14 31 7 3
16 -2 21 -9 4 -7 10 -11 14 -8 9 10 -32 40 -47 34 -19 -8 -40 -52 -28 -60 5
-3 11 -1 15 5 3 5 12 10 18 10 8 0 7 -3 -2 -9 -17 -11 -6 -31 17 -31 10 0 30
-19 45 -42 15 -23 27 -37 27 -30 0 7 5 12 11 12 5 0 7 -5 4 -10 -10 -16 5 -70
20 -70 8 0 12 -11 9 -32 -1 -18 -3 -33 -4 -33 -1 0 -3 -15 -4 -32 -2 -20 0
-30 6 -27 6 4 -6 -18 -25 -49 -20 -30 -34 -58 -31 -61 2 -3 1 -4 -3 -1 -11 8
-32 -16 -26 -31 3 -9 0 -12 -8 -9 -8 3 -28 -8 -45 -24 -18 -17 -34 -28 -37
-25 -3 3 -22 -2 -42 -11 -36 -18 -134 -17 -177 0 -17 7 -18 -26 -18 -604 l0
-611 1750 0 1750 0 0 1636 0 1637 -52 -7 c-29 -4 -66 -9 -83 -12 -16 -2 -37
-1 -45 2 -21 10 30 21 97 23 85 2 83 -1 83 116 l0 103 -81 1 c-71 1 -84 -1
-95 -18 -10 -14 -22 -18 -41 -15 -15 3 -29 7 -32 10 -2 2 -10 -1 -18 -7 -7 -6
-13 -8 -13 -4 0 4 -7 2 -15 -5 -8 -7 -22 -9 -31 -6 -9 4 -23 1 -31 -6 -13 -10
-19 -7 -39 17 -22 28 -25 29 -46 16 -16 -10 -67 -15 -173 -18 -131 -3 -148 -2
-132 10 16 13 16 15 1 21 -9 3 -23 1 -32 -6 -12 -10 -16 -10 -19 0 -6 16 -231
14 -370 -3z m1127 -25 c0 -30 -13 -37 -38 -22 -16 11 -6 39 16 45 10 3 18 5
20 6 1 0 2 -12 2 -29z m-890 -660 c0 -5 -2 -10 -4 -10 -3 0 -8 5 -11 10 -3 6
-1 10 4 10 6 0 11 -4 11 -10z m387 -287 c-3 -10 -5 -4 -5 12 0 17 2 24 5 18 2
-7 2 -21 0 -30z m53 -95 c-38 -53 -85 -108 -73 -88 12 23 95 130 100 130 2 0
-10 -19 -27 -42z m-95 -4 c-42 -34 -52 -30 -13 5 18 16 35 27 38 24 3 -3 -8
-16 -25 -29z m-255 -18 c0 -2 -9 -6 -20 -9 -11 -3 -18 -1 -14 4 5 9 34 13 34
5z m-24 -51 c3 -17 -12 -20 -21 -5 -3 6 -1 10 5 10 6 0 8 6 4 13 -4 6 -3 8 1
4 5 -4 10 -14 11 -22z m190 -1 c-9 -8 -16 -20 -16 -26 0 -6 -3 -9 -6 -6 -8 9
14 48 27 48 6 0 3 -7 -5 -16z m77 -58 c-10 -13 -20 -22 -22 -20 -4 4 29 44 36
44 2 0 -4 -11 -14 -24z m-175 -50 c-13 -20 -26 -36 -30 -36 -4 0 5 18 19 40
15 22 28 38 30 36 3 -2 -6 -20 -19 -40z m132 -21 c-7 -9 -15 -13 -19 -10 -3 3
1 10 9 15 21 14 24 12 10 -5z m-59 -78 c-10 -9 -11 -8 -5 6 3 10 9 15 12 12 3
-3 0 -11 -7 -18z m-26 -36 c-3 -6 -11 -11 -17 -11 -6 0 -6 6 2 15 14 17 26 13
15 -4z m-39 -43 c-8 -13 -25 -53 -37 -91 -12 -37 -24 -66 -26 -63 -11 11 57
176 72 176 3 0 -1 -10 -9 -22z m-396 -150 c0 -18 -2 -20 -9 -8 -6 8 -7 18 -5
22 9 14 14 9 14 -14z m-1040 -18 c0 -5 -7 -10 -16 -10 -8 0 -12 5 -9 10 3 6
10 10 16 10 5 0 9 -4 9 -10z m50 -21 c0 -5 -7 -9 -15 -9 -15 0 -20 12 -9 23 8
8 24 -1 24 -14z m393 -13 c8 -21 -19 -27 -35 -8 -12 15 -11 16 5 3 15 -12 17
-11 17 3 0 20 6 21 13 2z m47 2 c0 -6 7 -20 17 -30 9 -10 11 -18 6 -18 -6 0
-14 8 -17 17 -6 14 -9 15 -15 4 -6 -9 -8 -5 -8 13 0 14 3 26 8 26 5 0 9 -5 9
-12z m-197 -25 c-5 -13 -3 -14 16 -3 13 6 25 9 28 7 2 -3 -5 -8 -16 -12 -12
-3 -21 -15 -21 -26 0 -23 -13 -25 -31 -2 -12 15 -12 16 5 10 14 -6 17 -4 12 8
-3 8 -9 22 -12 30 -4 11 -2 13 9 9 9 -3 13 -12 10 -21z m97 18 c0 -5 -9 -7
-20 -4 -11 3 -20 7 -20 9 0 2 9 4 20 4 11 0 20 -4 20 -9z m190 -11 c0 -11 -4
-20 -9 -20 -7 0 -8 17 -2 38 4 10 11 -2 11 -18z m-415 -19 c-6 -5 -25 10 -25
20 0 5 6 4 14 -3 8 -7 12 -15 11 -17z m-58 4 c0 -8 -6 -15 -14 -15 -17 0 -17
17 0 23 6 3 12 6 13 6 0 1 1 -6 1 -14z m140 -1 c2 -5 -5 -14 -15 -21 -15 -9
-19 -8 -19 3 0 8 4 14 9 14 5 0 6 5 2 11 -4 7 -1 10 6 7 8 -2 15 -9 17 -14z
m793 6 c0 -5 -5 -10 -11 -10 -5 0 -7 5 -4 10 3 6 8 10 11 10 2 0 4 -4 4 -10z
m-555 -30 c-3 -5 -12 -10 -18 -10 -7 0 -6 4 3 10 19 12 23 12 15 0z m460 0 c4
-6 11 -7 17 -4 6 4 5 -3 -2 -16 -10 -18 -14 -20 -21 -9 -6 11 -11 11 -21 1 -9
-9 -9 -12 5 -12 23 0 22 -27 -2 -40 -11 -5 -23 -19 -26 -30 -9 -28 -20 -25
-22 7 -1 16 2 21 7 13 6 -9 11 -7 20 10 10 19 9 24 -10 37 l-22 15 29 18 c33
22 40 23 48 10z m441 -27 c-7 -7 -26 7 -26 19 0 6 6 6 15 -2 9 -7 13 -15 11
-17z m-986 8 c0 -5 -7 -12 -16 -15 -14 -5 -15 -4 -4 9 14 17 20 19 20 6z m360
-1 c0 -5 -4 -10 -10 -10 -5 0 -10 5 -10 10 0 6 5 10 10 10 6 0 10 -4 10 -10z
m-407 -24 c4 -10 1 -13 -8 -9 -8 3 -12 9 -9 14 7 12 11 11 17 -5z m217 -17 c0
-10 -4 -19 -10 -19 -5 0 -9 11 -8 24 3 28 18 24 18 -5z m160 -1 c0 -6 -6 -5
-15 2 -8 7 -15 14 -15 16 0 2 7 1 15 -2 8 -4 15 -11 15 -16z m140 13 c0 -5 -9
-13 -20 -16 -21 -7 -28 -25 -10 -25 6 0 10 -5 10 -12 0 -6 -7 -5 -18 5 -14 13
-21 14 -30 5 -9 -9 -12 -9 -12 0 0 7 15 21 33 32 36 22 47 25 47 11z m91 -20
c-9 -16 -8 -18 9 -14 11 3 20 9 20 14 0 5 5 9 10 9 18 0 10 -16 -15 -30 -20
-10 -22 -16 -13 -27 9 -11 7 -18 -5 -31 -16 -15 -17 -15 -17 1 0 9 -9 21 -20
27 -21 11 -21 11 2 40 26 33 44 40 29 11z m-579 -13 c-6 -6 -15 -8 -19 -4 -4
4 -1 11 7 16 19 12 27 3 12 -12z m415 -51 c0 -9 -9 -12 -24 -9 -15 3 -25 -1
-29 -12 -3 -9 -10 -13 -15 -10 -5 3 -12 -1 -15 -10 -3 -8 -12 -12 -20 -9 -8 3
-14 -1 -14 -11 0 -10 -6 -13 -15 -10 -12 5 -13 9 -4 21 7 8 8 13 3 12 -29 -5
-52 3 -57 21 -3 11 -16 25 -29 30 -23 11 -23 11 2 5 14 -4 30 -7 37 -7 7 -1
12 -4 11 -7 -3 -29 31 -39 40 -12 3 8 15 9 38 5 24 -4 34 -3 34 6 0 8 10 11
27 7 24 -4 26 -4 10 8 -9 7 -17 16 -17 20 0 5 8 1 18 -8 10 -10 19 -23 19 -30z
m233 28 c0 -17 -2 -18 -25 -9 -13 5 -14 8 -3 15 19 13 28 11 28 -6z m435 5 c8
-13 -15 -13 -35 0 -12 8 -11 10 7 10 12 0 25 -4 28 -10z m-1049 -12 c3 -4 -1
-5 -10 -4 -8 1 -18 5 -22 8 -3 4 1 5 10 4 8 -1 18 -5 22 -8z m299 1 c12 -19
-5 -23 -22 -6 -16 16 -16 17 -1 17 9 0 20 -5 23 -11z m685 7 c0 -2 -7 -6 -15
-10 -8 -3 -15 -1 -15 4 0 6 7 10 15 10 8 0 15 -2 15 -4z m-810 -47 c0 -6 -4
-8 -9 -5 -5 4 -11 0 -14 -6 -2 -7 -8 -10 -12 -6 -9 8 17 38 28 31 4 -2 7 -9 7
-14z m424 6 c3 -8 15 -15 26 -15 11 0 20 -4 20 -10 0 -14 -37 -12 -43 3 -4 10
-7 10 -18 0 -17 -17 -29 -16 -29 0 0 14 19 37 31 37 4 0 9 -7 13 -15z m353 -7
c-3 -8 -6 -5 -6 6 -1 11 2 17 5 13 3 -3 4 -12 1 -19z m72 -5 c15 -17 3 -16
-29 2 -22 12 -23 14 -4 12 11 0 26 -7 33 -14z m65 -33 c5 -23 4 -23 -6 3 -7
15 -15 27 -20 27 -4 0 -8 5 -8 12 0 20 27 -14 34 -42z m-719 10 c-3 -5 2 -10
11 -10 14 0 15 -3 6 -12 -10 -10 -15 -10 -22 2 -8 13 -5 30 6 30 3 0 2 -4 -1
-10z m130 -11 c-10 -15 -25 -10 -19 6 4 8 10 12 15 9 5 -3 7 -10 4 -15z m45
11 c0 -5 -4 -10 -10 -10 -5 0 -10 5 -10 10 0 6 5 10 10 10 6 0 10 -4 10 -10z
m429 -12 c5 -13 6 -27 3 -32 -6 -10 -20 19 -21 42 -1 20 9 14 18 -10z m-402
-11 c-16 -11 -16 -13 4 -25 19 -12 21 -12 16 1 -3 9 0 21 8 27 11 9 13 6 10
-17 -2 -15 -4 -31 -4 -35 -1 -4 -11 -7 -23 -5 -15 1 -22 -3 -20 -11 1 -8 -2
-11 -8 -7 -6 3 -8 10 -5 15 3 4 2 15 -1 24 -5 13 -9 14 -20 5 -8 -6 -14 -8
-14 -3 0 11 62 55 69 49 2 -3 -3 -11 -12 -18z m493 12 c0 -5 -4 -7 -10 -4 -5
3 -10 2 -10 -3 0 -5 -11 -12 -25 -14 -33 -7 -32 5 3 19 36 15 42 15 42 2z
m-2214 -38 c-4 -6 -14 -7 -23 -4 -15 6 -14 7 3 13 22 9 29 6 20 -9z m1579 9
c-3 -5 -11 -10 -16 -10 -6 0 -7 5 -4 10 3 6 11 10 16 10 6 0 7 -4 4 -10z
m-1641 -26 c9 -3 16 -16 16 -28 -1 -21 -1 -21 -13 2 -7 12 -16 19 -20 16 -4
-4 -7 -2 -7 4 0 14 2 14 24 6z m1600 -9 c3 -9 0 -15 -9 -15 -8 0 -15 -3 -15
-7 0 -5 -12 -9 -26 -9 -18 -2 -24 2 -22 15 2 9 13 16 25 15 12 0 20 3 17 8 -3
4 1 8 9 8 8 0 17 -7 21 -15z m36 -5 c0 -5 -4 -10 -10 -10 -5 0 -10 5 -10 10 0
6 5 10 10 10 6 0 10 -4 10 -10z m730 3 c0 -14 -15 -30 -37 -42 -27 -14 -33
-14 -33 0 0 5 4 8 9 4 6 -3 18 6 28 19 18 25 33 33 33 19z m-888 -25 c-6 -6
-15 -8 -19 -4 -4 4 -1 11 7 16 19 12 27 3 12 -12z m-1487 -9 c11 -17 -1 -21
-15 -4 -8 9 -8 15 -2 15 6 0 14 -5 17 -11z m2211 -4 c-3 -9 0 -15 9 -15 8 0
15 -4 15 -10 0 -16 -27 -11 -34 6 -9 23 -7 34 5 34 6 0 9 -7 5 -15z m200 -33
c-11 -10 -15 4 -8 28 l7 25 3 -23 c2 -13 1 -26 -2 -30z m-2369 23 c0 -17 -13
-20 -21 -6 -4 5 0 12 6 14 7 3 13 6 14 6 0 1 1 -6 1 -14z m2336 -8 c4 3 7 -1
7 -10 0 -22 -16 -22 -24 0 -6 15 -8 15 -16 3 -5 -8 -12 -11 -17 -7 -11 12 19
27 33 17 6 -6 14 -7 17 -3z m-16 -59 c-3 -8 -6 -5 -6 6 -1 11 2 17 5 13 3 -3
4 -12 1 -19z m53 12 c0 -5 -4 -10 -10 -10 -5 0 -10 5 -10 10 0 6 5 10 10 10 6
0 10 -4 10 -10z m-155 -10 c3 -5 2 -10 -4 -10 -5 0 -13 5 -16 10 -3 6 -2 10 4
10 5 0 13 -4 16 -10z m-2275 -24 c0 -3 -4 -8 -10 -11 -5 -3 -10 -1 -10 4 0 6
5 11 10 11 6 0 10 -2 10 -4z m145 -25 c-3 -6 -11 -11 -16 -11 -5 0 -4 6 3 14
14 16 24 13 13 -3z m-75 -5 c0 -3 -4 -8 -10 -11 -5 -3 -10 -1 -10 4 0 6 5 11
10 11 6 0 10 -2 10 -4z m-120 -25 c0 -5 -7 -11 -15 -15 -15 -5 -20 5 -8 17 9
10 23 9 23 -2z m276 -48 c-7 -7 -26 7 -26 19 0 6 6 6 15 -2 9 -7 13 -15 11
-17z m-296 -25 c0 -13 -23 -5 -28 10 -2 7 2 10 12 6 9 -3 16 -11 16 -16z m270
2 c0 -5 -5 -10 -11 -10 -5 0 -7 5 -4 10 3 6 8 10 11 10 2 0 4 -4 4 -10z m180
0 c0 -5 -4 -10 -10 -10 -5 0 -10 5 -10 10 0 6 5 10 10 10 6 0 10 -4 10 -10z
m105 -104 c-11 -8 -25 -11 -33 -8 -11 4 -11 6 0 13 7 5 22 9 32 9 19 0 19 0 1
-14z m1635 4 c0 -5 -4 -10 -10 -10 -5 0 -10 5 -10 10 0 6 5 10 10 10 6 0 10
-4 10 -10z m-1502 -25 c11 -10 8 -15 -12 -29 -14 -9 -26 -12 -26 -7 0 5 5 13
10 16 6 3 10 11 10 17 0 6 -11 3 -25 -6 -14 -9 -25 -12 -25 -7 0 5 6 12 13 14
9 4 8 8 -3 17 -12 8 -8 9 15 4 17 -4 36 -12 43 -19z m1729 -11 c-3 -3 -12 -4
-19 -1 -8 3 -5 6 6 6 11 1 17 -2 13 -5z m-2250 -507 c7 2 22 -1 34 -8 20 -10
21 -12 5 -21 -11 -6 -21 -6 -29 0 -7 5 -27 13 -44 17 -18 3 -33 10 -33 15 0 5
12 5 28 1 15 -4 32 -6 39 -4z m303 -11 c0 -3 -4 -8 -10 -11 -5 -3 -10 -1 -10
4 0 6 5 11 10 11 6 0 10 -2 10 -4z m270 -16 c0 -5 -4 -10 -10 -10 -5 0 -10 5
-10 10 0 6 5 10 10 10 6 0 10 -4 10 -10z m145 -7 c-11 -3 -26 -10 -32 -15 -8
-6 -13 -7 -13 -1 0 16 12 23 39 22 21 -1 22 -2 6 -6z m-455 -23 c0 -5 -7 -7
-15 -4 -8 4 -15 8 -15 10 0 2 7 4 15 4 8 0 15 -4 15 -10z m545 -111 c11 -17
-1 -21 -15 -4 -8 9 -8 15 -2 15 6 0 14 -5 17 -11z m45 1 c-8 -5 -19 -10 -25
-10 -5 0 -3 5 5 10 8 5 20 10 25 10 6 0 3 -5 -5 -10z m167 -46 c-3 -3 -12 -4
-19 -1 -8 3 -5 6 6 6 11 1 17 -2 13 -5z m-267 -28 c0 -3 -4 -8 -10 -11 -5 -3
-10 -1 -10 4 0 6 5 11 10 11 6 0 10 -2 10 -4z m380 -28 c30 -20 88 -30 96 -17
9 16 24 10 17 -7 -5 -14 -1 -16 23 -11 l29 6 -30 -14 c-26 -12 -27 -20 -2 -16
4 0 7 -3 7 -9 0 -13 -17 -13 -25 0 -10 16 -45 12 -45 -5 0 -11 -9 -14 -35 -10
-20 2 -40 7 -46 11 -6 3 -19 -3 -29 -14 -13 -14 -32 -20 -69 -20 -49 -2 -73
10 -50 24 7 4 26 7 43 8 17 1 31 6 31 11 0 6 -7 9 -15 7 -30 -6 -101 -3 -155
7 -5 1 -4 5 4 10 7 5 30 6 51 4 21 -3 46 0 56 7 18 10 17 11 -3 7 -13 -3 -23
-1 -23 5 0 6 -9 8 -20 5 -10 -3 -27 2 -37 10 -17 13 -17 14 2 6 23 -10 72 -8
130 5 50 12 64 10 95 -10z m30 12 c0 -5 -4 -10 -9 -10 -6 0 -13 5 -16 10 -3 6
1 10 9 10 9 0 16 -4 16 -10z m170 -80 c0 -5 -10 -6 -22 -2 -12 3 -17 7 -10 10
7 2 9 9 5 15 -4 7 1 6 10 -2 9 -7 17 -17 17 -21z m-392 -17 c-10 -2 -28 -2
-40 0 -13 2 -5 4 17 4 22 1 32 -1 23 -4z m-88 -7 c0 -3 -4 -8 -10 -11 -5 -3
-10 -1 -10 4 0 6 5 11 10 11 6 0 10 -2 10 -4z m325 -42 c-10 -7 -15 -19 -12
-27 4 -10 -2 -14 -19 -14 -13 0 -24 3 -24 8 0 5 5 9 10 9 6 0 10 4 10 10 0 5
-8 9 -17 8 -10 -1 -36 0 -58 1 -35 3 -37 4 -15 10 14 5 42 7 63 7 20 -1 37 2
37 6 0 3 10 4 21 1 21 -6 21 -7 4 -19z m-205 6 c0 -5 -11 -10 -24 -10 -14 0
-28 -5 -32 -11 -3 -6 -17 -8 -29 -5 -13 3 -25 1 -27 -5 -2 -6 -12 -7 -27 -1
-21 8 -22 9 -5 23 16 12 17 12 9 -1 -8 -13 -6 -13 8 -1 9 7 27 11 40 7 18 -4
46 0 85 13 1 1 2 -3 2 -9z m-170 -15 c-7 -9 -15 -13 -17 -11 -7 7 7 26 19 26
6 0 6 -6 -2 -15z m215 5 c-3 -5 -13 -10 -21 -10 -8 0 -12 5 -9 10 3 6 13 10
21 10 8 0 12 -4 9 -10z m-260 -10 c-19 -7 -18 -9 8 -19 16 -6 37 -11 47 -11
10 0 22 -5 26 -11 5 -8 -3 -10 -27 -5 -19 3 -51 9 -71 12 -21 4 -38 9 -38 12
0 11 36 31 55 31 l20 0 -20 -9z m455 -20 c0 -5 -4 -10 -9 -10 -6 0 -13 5 -16
10 -3 6 1 10 9 10 9 0 16 -4 16 -10z m-295 -30 c3 -5 1 -10 -4 -10 -6 0 -11 5
-11 10 0 6 2 10 4 10 3 0 8 -4 11 -10z"/>
<path d="M1748 303 c7 -3 16 -2 19 1 4 3 -2 6 -13 5 -11 0 -14 -3 -6 -6z"/>
<path d="M1558 273 c7 -3 16 -2 19 1 4 3 -2 6 -13 5 -11 0 -14 -3 -6 -6z"/>
<path d="M3168 3493 c7 -3 16 -2 19 1 4 3 -2 6 -13 5 -11 0 -14 -3 -6 -6z"/>
<path d="M3200 3492 c0 -10 87 -8 97 2 3 3 -17 6 -45 6 -29 0 -52 -4 -52 -8z"/>
<path d="M2925 3295 l-30 -13 30 -1 c46 -1 80 10 63 20 -17 12 -28 11 -63 -6z"/>
<path d="M2095 2770 c3 -5 8 -10 11 -10 2 0 4 5 4 10 0 6 -5 10 -11 10 -5 0
-7 -4 -4 -10z"/>
<path d="M2620 2640 c0 -5 5 -10 10 -10 6 0 10 5 10 10 0 6 -4 10 -10 10 -5 0
-10 -4 -10 -10z"/>
<path d="M2435 2490 c-3 -5 -1 -10 4 -10 6 0 11 5 11 10 0 6 -2 10 -4 10 -3 0
-8 -4 -11 -10z"/>
<path d="M2607 2493 c-11 -10 -8 -25 3 -18 5 3 7 0 4 -8 -3 -8 -1 -18 5 -22 7
-4 11 5 11 24 0 30 -9 39 -23 24z"/>
<path d="M2501 2481 c-7 -5 -9 -11 -5 -14 5 -3 15 1 22 9 14 16 5 18 -17 5z"/>
<path d="M2516 2411 c-5 -8 -3 -16 5 -22 21 -13 36 -11 36 6 0 11 -4 12 -13 4
-9 -7 -13 -5 -16 8 -3 14 -5 15 -12 4z"/>
<path d="M2434 2401 c4 -5 0 -11 -6 -14 -7 -2 -9 -8 -5 -13 4 -5 12 -2 17 6
13 20 12 30 -1 30 -5 0 -8 -4 -5 -9z"/>
<path d="M2570 2400 c0 -5 5 -10 11 -10 5 0 7 5 4 10 -3 6 -8 10 -11 10 -2 0
-4 -4 -4 -10z"/>
<path d="M2387 2376 c-4 -10 -1 -13 9 -9 15 6 19 23 5 23 -5 0 -11 -7 -14 -14z"/>
<path d="M1690 2303 c0 -4 5 -15 10 -23 8 -13 10 -13 10 2 0 9 -4 20 -10 23
-5 3 -10 3 -10 -2z"/>
<path d="M2021 2284 c0 -11 3 -14 6 -6 3 7 2 16 -1 19 -3 4 -6 -2 -5 -13z"/>
<path d="M2338 2293 c6 -2 18 -2 25 0 6 3 1 5 -13 5 -14 0 -19 -2 -12 -5z"/>
<path d="M2350 2260 c0 -6 7 -10 15 -10 8 0 15 2 15 4 0 2 -7 6 -15 10 -8 3
-15 1 -15 -4z"/>
<path d="M2647 2244 c-3 -3 -3 -12 -1 -18 3 -7 -2 -19 -11 -26 -10 -8 -15 -9
-15 -1 0 6 5 11 12 11 6 0 8 3 5 6 -11 11 -36 -16 -30 -32 12 -32 50 -7 59 40
4 24 -5 34 -19 20z"/>
<path d="M2336 2231 c-3 -5 1 -11 9 -15 8 -3 15 -1 15 4 0 13 -18 22 -24 11z"/>
<path d="M1710 2219 c0 -5 5 -7 10 -4 6 3 10 8 10 11 0 2 -4 4 -10 4 -5 0 -10
-5 -10 -11z"/>
<path d="M1500 2211 c0 -5 7 -15 17 -22 15 -13 15 -12 4 9 -12 23 -21 28 -21
13z"/>
<path d="M1547 2180 c3 -11 9 -17 14 -14 14 8 10 34 -5 34 -9 0 -12 -7 -9 -20z"/>
<path d="M2130 2189 c0 -5 5 -7 10 -4 6 3 10 8 10 11 0 2 -4 4 -10 4 -5 0 -10
-5 -10 -11z"/>
<path d="M1170 2171 c0 -5 5 -13 10 -16 6 -3 10 -2 10 4 0 5 -4 13 -10 16 -5
3 -10 2 -10 -4z"/>
<path d="M1243 2154 c0 -14 26 -27 47 -22 7 2 14 -5 15 -15 5 -28 15 -33 15
-8 0 12 -7 30 -16 38 -21 21 -61 26 -61 7z m47 -4 c0 -5 -5 -10 -11 -10 -5 0
-7 5 -4 10 3 6 8 10 11 10 2 0 4 -4 4 -10z"/>
<path d="M555 2150 c3 -5 8 -10 11 -10 2 0 4 5 4 10 0 6 -5 10 -11 10 -5 0 -7
-4 -4 -10z"/>
<path d="M1192 2134 c-14 -16 -5 -18 17 -5 7 5 9 11 5 14 -5 3 -15 -1 -22 -9z"/>
<path d="M1895 2140 c3 -5 8 -10 11 -10 2 0 4 5 4 10 0 6 -5 10 -11 10 -5 0
-7 -4 -4 -10z"/>
<path d="M2036 2141 c-3 -5 1 -12 10 -15 22 -8 25 -4 9 11 -8 7 -16 9 -19 4z"/>
<path d="M950 2113 c0 -12 5 -25 10 -28 13 -8 13 15 0 35 -8 12 -10 11 -10 -7z"/>
<path d="M1135 2120 c-3 -5 -1 -10 4 -10 6 0 11 5 11 10 0 6 -2 10 -4 10 -3 0
-8 -4 -11 -10z"/>
<path d="M1810 2120 c0 -5 5 -10 10 -10 6 0 10 5 10 10 0 6 -4 10 -10 10 -5 0
-10 -4 -10 -10z"/>
<path d="M2196 2115 c-5 -13 -2 -14 17 -4 32 17 33 19 10 19 -12 0 -23 -7 -27
-15z"/>
<path d="M1156 2103 c-6 -14 -5 -15 5 -6 7 7 10 15 7 18 -3 3 -9 -2 -12 -12z"/>
<path d="M1540 2109 c0 -6 -10 -19 -22 -30 -13 -10 -18 -18 -12 -19 11 0 34
23 48 48 4 6 2 12 -3 12 -6 0 -11 -5 -11 -11z"/>
<path d="M2130 2110 c0 -5 4 -10 9 -10 6 0 13 5 16 10 3 6 -1 10 -9 10 -9 0
-16 -4 -16 -10z"/>
<path d="M1015 2102 c-3 -4 -11 -7 -16 -7 -5 0 -9 -3 -9 -7 0 -5 0 -11 0 -14
0 -4 7 -1 15 6 13 11 20 9 39 -9 12 -11 26 -18 31 -14 4 5 5 2 1 -5 -4 -7 -11
-10 -16 -7 -5 3 -11 1 -15 -5 -3 -5 -2 -10 4 -10 5 0 11 -8 13 -17 2 -10 12
-18 22 -18 11 0 21 -6 24 -14 3 -8 0 -11 -7 -7 -6 4 -14 1 -17 -7 -3 -9 -14
-12 -30 -9 -26 5 -33 22 -9 22 8 0 15 5 15 10 0 6 -4 10 -9 10 -5 0 -12 12
-15 28 -5 21 -12 27 -34 28 -15 0 -34 2 -42 5 -22 6 -18 -22 8 -48 26 -27 28
-43 5 -44 -15 0 -15 -2 2 -8 12 -5 23 -4 27 3 4 6 6 1 5 -12 0 -12 -2 -22 -3
-22 -2 0 -14 4 -28 10 -35 13 -36 -11 -1 -30 14 -7 25 -17 25 -21 0 -4 9 -5
20 -2 11 3 20 10 19 17 -3 24 2 33 16 33 10 0 12 -4 5 -12 -12 -14 -1 -57 12
-49 6 4 5 -2 -1 -14 -7 -14 -17 -19 -32 -15 -16 5 -18 8 -7 15 10 8 10 9 -1 6
-24 -7 -25 -28 -2 -28 12 0 21 -5 21 -12 0 -6 6 -3 14 8 12 15 17 17 27 7 7
-7 22 -13 34 -13 18 1 17 3 -7 18 -16 9 -28 20 -28 24 0 11 14 10 27 -3 15
-15 65 -19 60 -5 -2 6 -16 10 -31 8 -14 -1 -26 2 -26 9 0 6 7 9 15 5 10 -4 15
1 15 15 0 14 5 19 14 16 18 -7 25 20 14 59 -5 19 -16 34 -28 37 -11 3 -20 1
-20 -3 0 -10 -38 -1 -46 11 -3 5 2 6 10 3 9 -4 18 0 22 9 7 20 40 11 62 -18
15 -19 20 -21 28 -8 8 12 12 11 32 -7 12 -11 22 -17 22 -12 0 13 -23 38 -44
49 -11 6 -14 13 -8 16 5 4 22 -3 36 -14 15 -12 30 -19 33 -15 3 3 -2 8 -11 12
-9 3 -16 11 -16 16 0 6 8 7 18 3 9 -4 25 -7 35 -7 10 0 23 -7 29 -18 6 -10 18
-16 25 -13 7 3 13 0 13 -6 0 -6 4 -11 10 -11 5 0 6 7 3 17 -5 12 -3 14 7 8 8
-5 11 -4 7 2 -4 6 -18 8 -33 5 -24 -4 -26 -2 -20 19 3 13 3 18 0 12 -4 -9 -12
-8 -32 5 -18 11 -23 13 -18 3 6 -9 5 -12 -5 -9 -8 3 -13 14 -11 25 2 12 -3 20
-13 20 -9 0 -14 -6 -11 -13 3 -8 0 -11 -8 -8 -7 3 -21 -4 -31 -16 -17 -19 -19
-19 -39 -3 -18 16 -17 15 3 -14 26 -38 20 -42 -16 -13 -16 13 -34 18 -48 14
-17 -4 -25 -1 -29 14 -4 11 -14 26 -24 34 -15 12 -16 11 -3 -5 8 -9 11 -21 7
-25 -4 -4 -16 3 -26 15 -9 12 -21 19 -25 15z m143 -127 c14 -31 15 -38 3 -30
-5 3 -13 -5 -17 -17 -6 -20 -8 -20 -19 -5 -7 9 -17 17 -24 17 -6 0 -11 5 -11
11 0 7 11 8 31 4 24 -6 30 -4 26 6 -2 8 -10 13 -16 12 -12 -3 -15 10 -4 20 12
12 20 7 31 -18z m-44 -61 c4 -9 4 -19 2 -21 -8 -8 -26 8 -26 23 0 19 16 18 24
-2z m-94 -4 c0 -5 -7 -7 -15 -4 -8 4 -15 8 -15 10 0 2 7 4 15 4 8 0 15 -4 15
-10z"/>
<path d="M1190 2093 c-13 -15 -12 -16 4 -10 10 4 22 7 27 7 5 0 9 5 9 10 0 15
-23 11 -40 -7z"/>
<path d="M1375 2100 c3 -5 8 -10 11 -10 2 0 4 5 4 10 0 6 -5 10 -11 10 -5 0
-7 -4 -4 -10z"/>
<path d="M2090 2095 c-17 -21 -8 -28 15 -11 11 8 14 15 8 19 -6 4 -16 0 -23
-8z"/>
<path d="M2259 2098 c7 -9 9 -23 5 -30 -6 -10 -4 -11 7 0 11 10 10 15 -6 30
-17 15 -18 15 -6 0z"/>
<path d="M847 2093 c-9 -2 -15 -9 -12 -14 9 -14 22 -11 29 6 3 8 4 14 3 14 -1
-1 -10 -3 -20 -6z"/>
<path d="M2150 2090 c0 -6 -12 -16 -27 -22 -24 -10 -25 -12 -9 -16 11 -2 23 3
28 12 5 9 16 16 24 16 8 0 12 5 9 10 -8 13 -25 13 -25 0z"/>
<path d="M2223 2075 c1 -19 -2 -29 -10 -28 -7 2 -10 -4 -6 -12 4 -13 8 -13 21
-3 13 11 14 10 8 -10 -6 -17 -4 -21 8 -16 12 5 13 10 5 25 -5 11 -7 29 -3 41
4 13 2 18 -4 14 -6 -3 -13 0 -16 6 -3 7 -4 0 -3 -17z"/>
<path d="M785 2070 c3 -5 10 -10 16 -10 5 0 9 5 9 10 0 6 -7 10 -16 10 -8 0
-12 -4 -9 -10z"/>
<path d="M2180 2070 c-9 -6 -10 -10 -3 -10 6 0 15 5 18 10 8 12 4 12 -15 0z"/>
<path d="M596 2054 c-17 -12 -17 -14 -4 -14 9 0 20 5 23 11 11 17 2 18 -19 3z"/>
<path d="M750 2060 c0 -5 5 -10 11 -10 5 0 7 5 4 10 -3 6 -8 10 -11 10 -2 0
-4 -4 -4 -10z"/>
<path d="M1633 2062 c-7 -4 -9 -13 -4 -21 6 -9 10 -7 14 8 3 12 4 21 4 21 -1
0 -7 -4 -14 -8z"/>
<path d="M716 2036 c3 -8 13 -17 22 -21 13 -5 13 -2 -3 15 -21 24 -26 25 -19
6z"/>
<path d="M2050 2040 c0 -5 5 -10 11 -10 5 0 7 5 4 10 -3 6 -8 10 -11 10 -2 0
-4 -4 -4 -10z"/>
<path d="M780 2030 c-13 -8 -12 -10 3 -10 9 0 17 5 17 10 0 12 -1 12 -20 0z"/>
<path d="M1685 2032 c-10 -7 -18 -32 -10 -32 2 0 9 9 15 20 12 22 11 24 -5 12z"/>
<path d="M623 2004 c-3 -8 -1 -20 5 -26 7 -7 10 -2 9 16 -2 30 -5 32 -14 10z"/>
<path d="M933 2007 c3 -8 1 -20 -4 -28 -7 -12 -9 -11 -9 2 0 9 -6 16 -13 16
-7 0 -13 -10 -13 -21 1 -11 -5 -21 -12 -21 -7 0 -17 -7 -23 -15 -8 -11 -9 -7
-6 17 3 31 3 32 -15 16 -12 -10 -18 -12 -18 -4 0 7 -4 9 -10 6 -5 -3 -10 0
-10 8 0 21 -23 27 -39 10 -12 -13 -11 -14 8 -8 24 7 30 -12 6 -21 -8 -4 -15
-10 -15 -16 0 -5 5 -6 11 -3 6 4 9 0 7 -10 -2 -10 3 -20 11 -23 8 -3 11 0 7 7
-4 6 -1 11 8 11 9 0 16 6 16 13 0 9 2 9 9 -1 4 -7 17 -15 27 -16 10 -2 25 -14
31 -27 12 -23 15 -21 17 10 2 23 26 25 26 2 0 -23 -10 -30 -47 -37 -15 -3 -30
-9 -33 -13 -3 -4 -16 -8 -29 -8 -18 -2 -22 2 -18 18 3 10 1 19 -4 19 -12 0
-31 -49 -23 -61 8 -13 32 -11 37 4 4 9 6 9 6 0 1 -8 14 -10 43 -7 52 6 58 10
58 35 0 12 10 23 25 29 14 5 25 12 25 14 0 3 -7 3 -15 0 -9 -4 -15 -1 -15 7 0
7 -8 21 -17 32 -10 11 -13 17 -7 14 7 -4 19 4 28 18 20 30 20 31 0 39 -11 4
-15 2 -11 -7z m-133 -167 c0 -5 -4 -10 -10 -10 -5 0 -10 5 -10 10 0 6 5 10 10
10 6 0 10 -4 10 -10z"/>
<path d="M2128 2009 c-18 -10 -25 -49 -9 -49 5 0 7 9 4 20 -4 15 -1 19 9 15 9
-4 15 0 15 10 0 8 -1 15 -1 15 -1 0 -9 -5 -18 -11z"/>
<path d="M2181 2003 c-1 -12 4 -25 9 -28 12 -7 12 2 0 30 -8 19 -9 19 -9 -2z"/>
<path d="M1350 1993 c1 -19 16 -32 29 -24 11 7 9 11 -8 20 -11 7 -21 8 -21 4z"/>
<path d="M1452 1988 c-7 -7 -12 -18 -12 -24 0 -15 -35 -28 -50 -19 -5 3 -10 4
-10 1 0 -3 9 -10 20 -16 15 -8 24 -6 40 10 11 11 18 20 15 20 -3 0 -1 9 5 20
12 23 9 25 -8 8z"/>
<path d="M705 1980 c-3 -5 1 -10 10 -10 9 0 13 5 10 10 -3 6 -8 10 -10 10 -2
0 -7 -4 -10 -10z"/>
<path d="M1212 1974 c-7 -8 -10 -19 -7 -24 3 -6 2 -10 -3 -10 -5 0 -9 -6 -9
-12 0 -7 -3 -20 -5 -28 -3 -8 -3 -12 -1 -8 2 4 12 4 20 1 13 -5 15 -2 10 12
-4 9 -3 23 2 29 13 17 23 56 14 56 -4 -1 -14 -7 -21 -16z"/>
<path d="M1785 1980 c3 -5 8 -10 11 -10 2 0 4 5 4 10 0 6 -5 10 -11 10 -5 0
-7 -4 -4 -10z"/>
<path d="M1895 1980 c3 -5 8 -10 11 -10 2 0 4 5 4 10 0 6 -5 10 -11 10 -5 0
-7 -4 -4 -10z"/>
<path d="M2000 1980 c18 -12 30 -13 30 -2 0 4 -10 9 -22 9 -18 2 -20 0 -8 -7z"/>
<path d="M1595 1960 c-3 -5 -1 -10 4 -10 6 0 11 5 11 10 0 6 -2 10 -4 10 -3 0
-8 -4 -11 -10z"/>
<path d="M696 1944 c-5 -14 -4 -15 9 -4 17 14 19 20 6 20 -5 0 -12 -7 -15 -16z"/>
<path d="M2115 1940 c3 -5 8 -10 11 -10 2 0 4 5 4 10 0 6 -5 10 -11 10 -5 0
-7 -4 -4 -10z"/>
<path d="M2210 1940 c0 -5 8 -10 18 -10 14 0 15 -2 2 -10 -8 -5 -10 -10 -4
-10 18 0 24 13 13 27 -13 15 -29 17 -29 3z"/>
<path d="M2050 1920 c0 -5 5 -10 11 -10 5 0 7 5 4 10 -3 6 -8 10 -11 10 -2 0
-4 -4 -4 -10z"/>
<path d="M2160 1926 c0 -3 9 -10 20 -16 11 -6 20 -8 20 -6 0 3 -9 10 -20 16
-11 6 -20 8 -20 6z"/>
<path d="M963 1864 c-3 -8 -11 -13 -18 -10 -8 3 -16 -1 -18 -9 -4 -8 4 -15 21
-18 29 -6 56 9 46 25 -3 5 -12 1 -20 -9 -16 -21 -18 -10 -4 18 6 10 8 19 5 19
-3 0 -8 -7 -12 -16z"/>
<path d="M1007 1813 c-3 -5 6 -9 20 -10 19 -1 22 1 12 8 -17 11 -26 11 -32 2z"/>
<path d="M1856 1553 c-6 -14 -5 -15 5 -6 7 7 10 15 7 18 -3 3 -9 -2 -12 -12z"/>
<path d="M1180 1271 c0 -11 -5 -21 -10 -23 -7 -2 -5 -10 3 -22 19 -26 133 -35
123 -10 -3 9 -6 19 -6 23 0 4 -10 7 -22 8 -11 1 -24 7 -28 13 -4 6 -14 8 -23
4 -12 -4 -17 -1 -17 10 0 9 -4 16 -10 16 -5 0 -10 -9 -10 -19z"/>
</g>
</svg>
